#!OML:ASF H:\charlestonDancing\Project 1\Capture day 1\Session 1\femaleDancer.ASF
:FULLY-SPECIFIED
:DEGREES
80
root 1.21172 17.5513 -0.992474 18.6988 -78.7188 -18.0567
lowerback 19.6824 0.596332 2.32454
upperback 4.3242 1.15344 2.04664
thorax -6.32192 0.429254 0.600679
lowerneck 1.31436 -4.77372 1.45019
upperneck -0.0502814 -6.33938 2.96075
head -0.175069 -3.18393 0.692229
rclavicle -4.81059e-014 -2.5842e-014
rhumerus -7.58341 -2.97643 -59.3934
rradius 74.7918
rwrist 20.3315
rhand -36.7594 -51.1507
rfingers 7.12502
rthumb -9.84248 -80.9007
lclavicle -4.81059e-014 -2.5842e-014
lhumerus -29.2181 21.087 13.9763
lradius 154.804
lwrist 9.14581
lhand 0.854479 18.8108
lfingers 7.12502
lthumb 26.4086 46.9914
rfemur -36.0079 3.48061 13.983
rtibia 26.8873
rfoot -26.6481 -0.9009
rtoes -27.8266
lfemur -15.3117 -6.21263 -24.4763
ltibia 38.7845
lfoot -8.47633 -18.8236
ltoes 9.2392
81
root 1.16915 17.5043 -1.05262 13.859 -78.5011 -12.3097
lowerback 19.1489 0.818841 1.20567
upperback 4.14619 1.21195 1.70677
thorax -6.24853 0.484675 0.860296
lowerneck 1.41553 -4.91264 1.09818
upperneck -0.388012 -6.51801 3.57954
head -0.261719 -3.28267 0.94748
rclavicle -8.74653e-015 4.57205e-015
rhumerus -8.58275 -3.23089 -59.3906
rradius 75.1387
rwrist 20.7305
rhand -36.81 -51.8225
rfingers 7.12502
rthumb -9.89131 -81.5702
lclavicle -8.74653e-015 4.57205e-015
lhumerus -28.7265 22.3585 13.2956
lradius 154.64
lwrist 10.8339
lhand 1.6292 18.783
lfingers 7.12502
lthumb 27.1499 46.8501
rfemur -37.0338 2.28298 13.3795
rtibia 29.1634
rfoot -23.4919 -0.510481
rtoes -26.552
lfemur -16.2776 -6.04571 -25.2641
ltibia 39.0189
lfoot -8.38015 -19.2834
ltoes 8.95427
82
root 1.12213 17.5068 -1.10407 10.4434 -78.335 -8.47202
lowerback 19.0574 0.990994 0.563001
upperback 4.12448 1.29725 1.42278
thorax -6.23235 0.538065 0.901544
lowerneck 1.61416 -4.9725 0.74218
upperneck -0.81098 -6.5846 4.08313
head -0.395602 -3.32784 1.1755
rclavicle 1.09332e-015 4.17448e-015
rhumerus -9.72152 -3.32753 -59.8397
rradius 75.5095
rwrist 20.5708
rhand -36.8543 -52.3721
rfingers 7.12502
rthumb -9.93412 -82.1177
lclavicle 1.09332e-015 4.17448e-015
lhumerus -28.7072 23.3933 13.1981
lradius 154.444
lwrist 11.8429
lhand 2.27254 18.5475
lfingers 7.12502
lthumb 27.7652 46.5169
rfemur -37.1993 0.483335 13.7149
rtibia 32.3152
rfoot -21.6079 -1.00282
rtoes -29.8751
lfemur -16.3913 -5.61773 -25.7339
ltibia 38.7326
lfoot -8.62025 -19.8304
ltoes 7.10088
83
root 1.06925 17.5372 -1.152 9.59979 -78.3315 -7.42269
lowerback 19.108 1.14263 0.350626
upperback 4.14069 1.44942 1.35474
thorax -6.24752 0.614786 0.912431
lowerneck 1.76688 -4.97385 0.55562
upperneck -0.996509 -6.57961 4.15625
head -0.470048 -3.32966 1.2376
rclavicle -3.04141e-014 4.37326e-015
rhumerus -10.9485 -3.14647 -60.621
rradius 75.6396
rwrist 20.2915
rhand -36.9937 -51.6519
rfingers 7.12502
rthumb -10.0686 -81.391
lclavicle -3.04141e-014 4.37326e-015
lhumerus -29.5877 23.9026 13.6143
lradius 154.362
lwrist 12.1534
lhand 2.53461 18.0144
lfingers 7.12502
lthumb 28.0158 45.9432
rfemur -37.3283 -0.704956 14.5146
rtibia 35.8256
rfoot -20.7856 -0.461785
rtoes -30.0713
lfemur -16.0345 -4.90773 -25.6122
ltibia 37.9848
lfoot -9.32388 -20.607
ltoes 2.45786
84
root 1.01031 17.6045 -1.19627 10.3808 -78.4285 -7.98491
lowerback 19.1239 1.25006 0.415768
upperback 4.07446 1.60963 1.39552
thorax -6.32908 0.692753 0.879737
lowerneck 1.3639 -4.98346 0.678629
upperneck -0.366698 -6.61962 3.69038
head -0.228261 -3.33174 1.04817
rclavicle 3.68746e-014 5.96354e-016
rhumerus -12.4277 -2.56173 -61.6529
rradius 75.5879
rwrist 19.769
rhand -37.0935 -50.8698
rfingers 7.12502
rthumb -10.1649 -80.6043
lclavicle 3.68746e-014 5.96354e-016
lhumerus -31.2502 23.7898 14.3117
lradius 154.352
lwrist 11.928
lhand 2.36491 17.0295
lfingers 7.12502
lthumb 27.8535 44.9847
rfemur -37.2952 -1.46667 15.5952
rtibia 39.3284
rfoot -20.1603 0.16404
rtoes -29.8063
lfemur -15.4141 -4.22045 -25.1376
ltibia 36.733
lfoot -10.1126 -21.2178
ltoes -3.41204
85
root 0.935524 17.688 -1.23458 11.0488 -78.5084 -8.21511
lowerback 18.9199 1.21932 0.690901
upperback 3.88148 1.62569 1.25094
thorax -6.41594 0.700257 0.565854
lowerneck -0.0181772 -5.06158 1.24978
upperneck 1.31704 -6.79504 2.80028
head 0.461222 -3.37954 0.61556
rclavicle 1.56046e-014 -1.33186e-014
rhumerus -14.1643 -1.69047 -63.1046
rradius 75.4025
rwrist 19.0742
rhand -37.0956 -50.8816
rfingers 7.12502
rthumb -10.1669 -80.616
lclavicle 1.56046e-014 -1.33186e-014
lhumerus -33.0952 23.4025 14.9596
lradius 154.316
lwrist 11.2075
lhand 2.12167 15.9217
lfingers 7.12502
lthumb 27.6209 43.9143
rfemur -37.2314 -1.97389 16.4877
rtibia 42.5243
rfoot -22.3865 2.41981
rtoes -15.1663
lfemur -14.8472 -3.76914 -24.7691
ltibia 35.235
lfoot -10.5307 -21.4275
ltoes -7.50738
